{"title":"Hush.2016.WEBRip.480p.x264.AAC-VYTO [P2PDL]","uid":14335354,"size":321247315,"categoryP":"video","categoryS":"movies","magnet":"?xt=urn:btih:42184fc6cfcddecbebb305ddc15d10c63c7fd208&amp;dn=Hush.2016.WEBRip.480p.x264.AAC-VYTO+%5BP2PDL%5D&amp;tr=udp%3A%2F%2Ftracker.leechers-paradise.org%3A6969&amp;tr=udp%3A%2F%2Fzer0day.ch%3A1337&amp;tr=udp%3A%2F%2Fopen.demonii.com%3A1337&amp;tr=udp%3A%2F%2Ftracker.coppersurfer.tk%3A6969&amp;tr=udp%3A%2F%2Fexodus.desync.com%3A6969","seeders":1,"leechers":1,"uploader":"VYTOP2PDL","files":12,"time":1460703516,"description":"____    ____ ____    ____ .___________.  ______   \r\n     /   /      /   / |           | /  __    \r\n    /   /      /   /  `---|  |----`|  |  |  | \r\n        /     _    _/       |  |     |  |  |  | \r\n       /        |  |         |  |     |  `--'  | \r\n    __/         |__|         |__|      ______/  \r\n                                                  \r\nPresenting Small Encodes with quality for years!\r\n                                                                                                   \r\n                                                                                                   \r\n\r\n\r\nHush.2016.WEBRip.480p.x264.AAC-VYTO\r\n\r\n\r\nGenre: Horror, Thriller \nhttp://www.imdb.com/title/tt5022702/\r\n\r\n\r\nFormat                                   : MPEG-4\r\nFile size                                : 300 MiB\r\nDuration                                 : 1h 21mn\r\nOverall bit rate                         : 514 Kbps\r\n\r\nVideo\r\nFormat                                   : AVC\r\nBit rate                                 : 472 Kbpss\r\nWidth                                    : 720 pixels\r\nHeight                                   : 304 pixels\r\nDisplay aspect ratio                     : 2.35:1\r\nFrame rate mode                          : Constant\r\nFrame rate                               : 23.976 fps\r\nBit depth                                : 8 bits\r\nStream size                              : 275 MiB (92%)\r\n\r\nAudio\r\nFormat                                   : AAC\r\nBit rate                                 : 40.0 Kbps\r\nChannel(s)                               : 2 channels\r\nChannel positions                        : Front: L R\r\nSampling rate                            : 48.0 KHz \r\nStream size                              : 23.4 MiB (8%)\r\nLanguage                                 : English\r\n\r\nSubtitle                                 : Yes (English,Dutch,Italian,French,German &amp; Spanish)\r\n\r\nScreen Shots: (Click links to view)\r\n \nhttps://ititli.com/XVM \nhttps://ititli.com/XVU \nhttps://ititli.com/XVh \nhttps://ititli.com/XVs \nhttps://ititli.com/XVY \nhttps://ititli.com/XV4 \nhttps://ititli.com/XVK \nhttps://ititli.com/XVV \nhttps://ititli.com/XVt \nhttps://ititli.com/XVL \nhttps://ititli.com/XVd \nhttps://ititli.com/XV0\r\n\r\n----------------------------------------------------------------------------------------------------\r\n\r\n\r\nEncoder Notes: Looking For Early Access To Anything You Can Provide WEBDL, DVDScr, DVDR, BluRay,\r\nDirect Audio, Music Releases and Seedboxes. If You Got anything to offer please contact us.\r\n\r\nSupport us by donating BC - 1FgwdzPsd1y25Gea8wP1qni35uGCtmkRCD\r\n\r\nFind us and join us!","torrent":{"xt":"urn:btih:42184fc6cfcddecbebb305ddc15d10c63c7fd208","amp;dn":"Hush.2016.WEBRip.480p.x264.AAC-VYTO+%5BP2PDL%5D","amp;tr":["udp%3A%2F%2Ftracker.leechers-paradise.org%3A6969","udp%3A%2F%2Fzer0day.ch%3A1337","udp%3A%2F%2Fopen.demonii.com%3A1337","udp%3A%2F%2Ftracker.coppersurfer.tk%3A6969","udp%3A%2F%2Fexodus.desync.com%3A6969"],"infoHash":"42184fc6cfcddecbebb305ddc15d10c63c7fd208","infoHashBuffer":{"type":"Buffer","data":[66,24,79,198,207,205,222,203,235,179,5,221,193,93,16,198,60,127,210,8]},"announce":[],"urlList":[]}}